<svg width="37" height="36" viewBox="0 0 37 36" fill="none" xmlns="http://www.w3.org/2000/svg">
<path fill-rule="evenodd" clip-rule="evenodd" d="M11.3371 2.28839C13.0966 2.20964 13.6576 2.19214 18.1396 2.19214C22.6216 2.19214 23.1826 2.2111 24.9406 2.28839C26.6986 2.36568 27.8986 2.63839 28.9486 3.0336C30.0481 3.43756 31.0456 4.06901 31.8706 4.88568C32.7106 5.68631 33.3586 6.65464 33.7726 7.72505C34.1806 8.74589 34.4596 9.91255 34.5406 11.6188C34.6216 13.3323 34.6396 13.8778 34.6396 18.2338C34.6396 22.5913 34.6201 23.1367 34.5406 24.8473C34.4611 26.5536 34.1806 27.7203 33.7726 28.7411C33.3586 29.8116 32.7096 30.7816 31.8706 31.5834C31.0456 32.4001 30.0481 33.0301 28.9486 33.4326C27.8986 33.8292 26.6986 34.1005 24.9436 34.1792C23.1826 34.258 22.6216 34.2755 18.1396 34.2755C13.6576 34.2755 13.0966 34.2565 11.3371 34.1792C9.58215 34.1019 8.38215 33.8292 7.33215 33.4326C6.23103 33.03 5.23338 32.399 4.40865 31.5834C3.56922 30.7823 2.91962 29.8128 2.50515 28.7426C2.09865 27.7217 1.81965 26.5551 1.73865 24.8488C1.65765 23.1353 1.63965 22.5898 1.63965 18.2338C1.63965 13.8763 1.65915 13.3309 1.73865 11.6217C1.81815 9.91255 2.09865 8.74589 2.50515 7.72505C2.92023 6.65476 3.57033 5.6853 4.41015 4.88422C5.23371 4.06829 6.23036 3.43674 7.33065 3.0336C8.38065 2.63839 9.58065 2.36714 11.3356 2.28839H11.3371ZM24.8071 5.17589C23.0671 5.0986 22.5451 5.08256 18.1396 5.08256C13.7341 5.08256 13.2121 5.0986 11.4721 5.17589C9.86265 5.24735 8.98965 5.50839 8.40765 5.7286C7.63815 6.02026 7.08765 6.36589 6.51015 6.92735C5.96272 7.44513 5.54142 8.07547 5.27715 8.77214C5.05065 9.33797 4.78215 10.1867 4.70865 11.7515C4.62915 13.4432 4.61265 13.9507 4.61265 18.2338C4.61265 22.5169 4.62915 23.0244 4.70865 24.7161C4.78215 26.2809 5.05065 27.1296 5.27715 27.6955C5.54115 28.3911 5.96265 29.0226 6.51015 29.5403C7.04265 30.0726 7.69215 30.4823 8.40765 30.739C8.98965 30.9592 9.86265 31.2203 11.4721 31.2917C13.2121 31.369 13.7326 31.3851 18.1396 31.3851C22.5466 31.3851 23.0671 31.369 24.8071 31.2917C26.4166 31.2203 27.2896 30.9592 27.8716 30.739C28.6411 30.4473 29.1916 30.1017 29.7691 29.5403C30.3166 29.0226 30.7381 28.3911 31.0021 27.6955C31.2286 27.1296 31.4971 26.2809 31.5706 24.7161C31.6501 23.0244 31.6666 22.5169 31.6666 18.2338C31.6666 13.9507 31.6501 13.4432 31.5706 11.7515C31.4971 10.1867 31.2286 9.33797 31.0021 8.77214C30.7021 8.02401 30.3466 7.4888 29.7691 6.92735C29.2365 6.39516 28.5882 5.98557 27.8716 5.7286C27.2896 5.50839 26.4166 5.24735 24.8071 5.17589ZM16.0321 23.179C17.2091 23.6553 18.5197 23.7196 19.74 23.3609C20.9604 23.0022 22.0147 22.2426 22.7231 21.2121C23.4314 20.1815 23.7497 18.9438 23.6237 17.7104C23.4977 16.477 22.9352 15.3244 22.0321 14.4494C21.4565 13.8901 20.7605 13.4619 19.9941 13.1955C19.2278 12.9291 18.4103 12.8312 17.6004 12.9089C16.7905 12.9865 16.0084 13.2378 15.3104 13.6446C14.6123 14.0514 14.0158 14.6036 13.5636 15.2615C13.1114 15.9194 12.8149 16.6665 12.6954 17.4492C12.5759 18.2318 12.6364 19.0305 12.8725 19.7877C13.1085 20.5449 13.5144 21.2418 14.0607 21.8282C14.6071 22.4146 15.2804 22.8759 16.0321 23.179ZM12.1426 12.4034C12.9302 11.6377 13.8651 11.0304 14.8941 10.616C15.9231 10.2016 17.0259 9.98835 18.1396 9.98835C19.2534 9.98835 20.3562 10.2016 21.3852 10.616C22.4142 11.0304 23.3491 11.6377 24.1366 12.4034C24.9242 13.169 25.5489 14.078 25.9751 15.0784C26.4013 16.0788 26.6207 17.151 26.6207 18.2338C26.6207 19.3166 26.4013 20.3888 25.9751 21.3892C25.5489 22.3896 24.9242 23.2986 24.1366 24.0642C22.5461 25.6105 20.389 26.4793 18.1396 26.4793C15.8903 26.4793 13.7331 25.6105 12.1426 24.0642C10.5521 22.5179 9.65861 20.4206 9.65861 18.2338C9.65861 16.047 10.5521 13.9497 12.1426 12.4034ZM28.5016 11.2163C28.6968 11.0373 28.853 10.8221 28.9611 10.5833C29.0692 10.3446 29.1269 10.0872 29.1308 9.82641C29.1347 9.5656 29.0847 9.30669 28.9839 9.06499C28.883 8.82329 28.7333 8.60372 28.5436 8.41928C28.3539 8.23484 28.128 8.08928 27.8794 7.99123C27.6308 7.89317 27.3645 7.8446 27.0962 7.8484C26.828 7.85221 26.5632 7.9083 26.3177 8.01336C26.0721 8.11842 25.8507 8.27032 25.6666 8.46005C25.3086 8.82906 25.1126 9.31919 25.1202 9.82641C25.1278 10.3336 25.3384 10.818 25.7074 11.1767C26.0763 11.5354 26.5745 11.7402 27.0962 11.7476C27.618 11.755 28.1221 11.5644 28.5016 11.2163Z" fill="white"/>
</svg>
