<svg width="32" height="32" viewBox="0 0 32 32" fill="none" xmlns="http://www.w3.org/2000/svg">
<path d="M30.6787 7.11084C29.6001 7.58876 28.4415 7.91168 27.2235 8.05763C28.4803 7.30562 29.4205 6.12203 29.8688 4.72772C28.688 5.42908 27.3957 5.92276 26.0481 6.1873C25.1418 5.21967 23.9414 4.57831 22.6333 4.36279C21.3252 4.14727 19.9825 4.36966 18.8137 4.99542C17.645 5.62118 16.7155 6.61531 16.1696 7.82346C15.6237 9.03161 15.492 10.3862 15.7948 11.6769C13.4022 11.5568 11.0617 10.9349 8.92498 9.85164C6.7883 8.76839 4.90327 7.24797 3.39222 5.38905C2.87556 6.2803 2.57847 7.31363 2.57847 8.41413C2.5779 9.40484 2.82186 10.3804 3.28873 11.2542C3.7556 12.128 4.43093 12.873 5.25481 13.4232C4.29933 13.3928 3.36493 13.1346 2.52939 12.6702V12.7477C2.52929 14.1372 3.00993 15.4839 3.88975 16.5594C4.76957 17.6348 5.99438 18.3728 7.35635 18.648C6.46999 18.8879 5.5407 18.9232 4.63868 18.7513C5.02295 19.9469 5.77147 20.9924 6.77945 21.7415C7.78743 22.4905 9.00441 22.9056 10.26 22.9286C8.12855 24.6018 5.4962 25.5095 2.78643 25.5055C2.30642 25.5056 1.82682 25.4776 1.3501 25.4215C4.10067 27.19 7.30254 28.1286 10.5726 28.125C21.6422 28.125 27.6936 18.9567 27.6936 11.0052C27.6936 10.7469 27.6872 10.486 27.6756 10.2276C28.8526 9.37639 29.8687 8.32229 30.6761 7.11472L30.6787 7.11084Z" fill="white"/>
</svg>
