<svg width="149" height="32" viewBox="0 0 149 32" fill="none" xmlns="http://www.w3.org/2000/svg">
<path d="M10.7084 25.2282C7.42171 25.2282 4.90571 24.3782 3.16038 22.6782C1.43771 20.9555 0.57638 18.4169 0.57638 15.0622V2.85618C0.57638 1.38285 1.30171 0.646182 2.75238 0.646182C4.20305 0.646182 4.92838 1.38285 4.92838 2.85618V15.0282C4.92838 17.1815 5.41571 18.8022 6.39038 19.8902C7.38771 20.9555 8.82705 21.4882 10.7084 21.4882C14.539 21.4882 16.4544 19.3348 16.4544 15.0282V2.85618C16.4544 1.38285 17.1797 0.646182 18.6304 0.646182C20.0584 0.646182 20.7724 1.38285 20.7724 2.85618V15.0622C20.7724 18.4169 19.9224 20.9555 18.2224 22.6782C16.5224 24.3782 14.0177 25.2282 10.7084 25.2282ZM27.5139 25.1602C26.0633 25.1602 25.3379 24.4122 25.3379 22.9162V2.89018C25.3379 1.39418 26.0633 0.646182 27.5139 0.646182C28.9646 0.646182 29.6899 1.39418 29.6899 2.89018V22.9162C29.6899 24.4122 28.9646 25.1602 27.5139 25.1602ZM36.5996 25.1602C35.149 25.1602 34.4236 24.4122 34.4236 22.9162V3.12818C34.4236 1.65485 35.1603 0.918182 36.6336 0.918182H44.8276C47.457 0.918182 49.4856 1.57552 50.9136 2.89018C52.3416 4.20485 53.0556 6.04085 53.0556 8.39818C53.0556 10.7555 52.3416 12.6028 50.9136 13.9402C49.4856 15.2548 47.457 15.9122 44.8276 15.9122H38.7756V22.9162C38.7756 24.4122 38.0503 25.1602 36.5996 25.1602ZM38.7756 12.4782H44.1476C47.2756 12.4782 48.8396 11.1182 48.8396 8.39818C48.8396 5.70085 47.2756 4.35218 44.1476 4.35218H38.7756V12.4782ZM57.5293 25.1602C56.0786 25.1602 55.3533 24.4349 55.3533 22.9842V10.1322C55.3533 8.70418 56.0446 7.99018 57.4273 7.99018C58.81 7.99018 59.5013 8.70418 59.5013 10.1322V11.1862C60.3173 9.23685 62.0626 8.14885 64.7373 7.92218C65.712 7.80885 66.256 8.36418 66.3693 9.58818C66.4826 10.7895 65.8933 11.4582 64.6013 11.5942L63.8533 11.6622C61.0653 11.9342 59.6713 13.3622 59.6713 15.9462V22.9842C59.6713 24.4349 58.9573 25.1602 57.5293 25.1602ZM75.4741 25.2282C73.7515 25.2282 72.2555 24.8769 70.9861 24.1742C69.7168 23.4715 68.7308 22.4742 68.0281 21.1822C67.3255 19.8675 66.9741 18.3262 66.9741 16.5582C66.9741 14.7902 67.3255 13.2602 68.0281 11.9682C68.7308 10.6762 69.7168 9.67885 70.9861 8.97618C72.2555 8.27352 73.7515 7.92218 75.4741 7.92218C77.1968 7.92218 78.6928 8.27352 79.9621 8.97618C81.2315 9.67885 82.2175 10.6762 82.9201 11.9682C83.6228 13.2602 83.9741 14.7902 83.9741 16.5582C83.9741 18.3262 83.6228 19.8675 82.9201 21.1822C82.2175 22.4742 81.2315 23.4715 79.9621 24.1742C78.6928 24.8769 77.1968 25.2282 75.4741 25.2282ZM75.4741 21.9982C76.7435 21.9982 77.7635 21.5449 78.5341 20.6382C79.3048 19.7089 79.6901 18.3489 79.6901 16.5582C79.6901 14.7448 79.3048 13.3962 78.5341 12.5122C77.7635 11.6055 76.7435 11.1522 75.4741 11.1522C74.2048 11.1522 73.1848 11.6055 72.4141 12.5122C71.6435 13.3962 71.2581 14.7448 71.2581 16.5582C71.2581 18.3489 71.6435 19.7089 72.4141 20.6382C73.1848 21.5449 74.2048 21.9982 75.4741 21.9982ZM90.8559 31.2802C90.0853 31.2802 89.5526 30.9969 89.2579 30.4302C88.9633 29.8635 88.9746 29.2175 89.2919 28.4922L91.2299 24.2082L85.4159 10.8122C85.0986 10.0642 85.0986 9.40685 85.4159 8.84018C85.7333 8.27352 86.3566 7.99018 87.2859 7.99018C87.8073 7.99018 88.2266 8.11485 88.5439 8.36418C88.8613 8.59085 89.1446 9.03285 89.3939 9.69018L93.4739 19.8902L97.6559 9.65618C97.9053 9.02152 98.1999 8.59085 98.5399 8.36418C98.8799 8.11485 99.3333 7.99018 99.8999 7.99018C100.625 7.99018 101.135 8.27352 101.43 8.84018C101.725 9.40685 101.713 10.0528 101.396 10.7782L93.1339 29.6482C92.8393 30.2829 92.5219 30.7135 92.1819 30.9402C91.8419 31.1669 91.3999 31.2802 90.8559 31.2802ZM111.888 25.2282C110.007 25.2282 108.386 24.8769 107.026 24.1742C105.666 23.4715 104.612 22.4742 103.864 21.1822C103.139 19.8902 102.776 18.3602 102.776 16.5922C102.776 14.8695 103.128 13.3622 103.83 12.0702C104.556 10.7782 105.542 9.76952 106.788 9.04418C108.058 8.29618 109.497 7.92218 111.106 7.92218C113.464 7.92218 115.322 8.67018 116.682 10.1662C118.065 11.6622 118.756 13.7022 118.756 16.2862C118.756 17.1248 118.212 17.5442 117.124 17.5442H106.856C107.174 20.5135 108.874 21.9982 111.956 21.9982C112.546 21.9982 113.203 21.9302 113.928 21.7942C114.676 21.6355 115.379 21.3749 116.036 21.0122C116.626 20.6722 117.124 20.5702 117.532 20.7062C117.94 20.8195 118.224 21.0575 118.382 21.4202C118.564 21.7829 118.586 22.1909 118.45 22.6442C118.337 23.0749 118.02 23.4489 117.498 23.7662C116.705 24.2649 115.787 24.6389 114.744 24.8882C113.724 25.1149 112.772 25.2282 111.888 25.2282ZM111.276 10.8122C110.03 10.8122 109.021 11.1975 108.25 11.9682C107.48 12.7388 107.015 13.7815 106.856 15.0962H115.22C115.13 13.7135 114.744 12.6595 114.064 11.9342C113.407 11.1862 112.478 10.8122 111.276 10.8122ZM129.296 25.2282C127.551 25.2282 126.032 24.8769 124.74 24.1742C123.448 23.4489 122.451 22.4289 121.748 21.1142C121.045 19.7995 120.694 18.2582 120.694 16.4902C120.694 14.7222 121.045 13.2035 121.748 11.9342C122.451 10.6422 123.448 9.65618 124.74 8.97618C126.032 8.27352 127.551 7.92218 129.296 7.92218C130.044 7.92218 130.849 8.02418 131.71 8.22818C132.594 8.43218 133.421 8.77218 134.192 9.24818C134.645 9.52018 134.906 9.87152 134.974 10.3022C135.065 10.7328 135.008 11.1295 134.804 11.4922C134.623 11.8548 134.339 12.1155 133.954 12.2742C133.591 12.4328 133.172 12.3762 132.696 12.1042C131.653 11.5148 130.645 11.2202 129.67 11.2202C128.197 11.2202 127.052 11.6848 126.236 12.6142C125.443 13.5208 125.046 14.8242 125.046 16.5242C125.046 18.2015 125.443 19.5275 126.236 20.5022C127.052 21.4542 128.197 21.9302 129.67 21.9302C130.645 21.9302 131.653 21.6469 132.696 21.0802C133.172 20.8082 133.591 20.7515 133.954 20.9102C134.317 21.0689 134.577 21.3409 134.736 21.7262C134.895 22.0889 134.929 22.4855 134.838 22.9162C134.747 23.3242 134.487 23.6642 134.056 23.9362C133.308 24.3895 132.515 24.7182 131.676 24.9222C130.837 25.1262 130.044 25.2282 129.296 25.2282ZM144.822 25.2282C140.424 25.2282 138.226 23.0522 138.226 18.7002V11.4582H136.458C135.324 11.4582 134.758 10.9255 134.758 9.86018C134.758 8.79485 135.324 8.26218 136.458 8.26218H138.226V5.16818C138.226 3.74018 138.94 3.02618 140.368 3.02618C141.773 3.02618 142.476 3.74018 142.476 5.16818V8.26218H146.08C147.213 8.26218 147.78 8.79485 147.78 9.86018C147.78 10.9255 147.213 11.4582 146.08 11.4582H142.476V18.4622C142.476 19.5502 142.714 20.3662 143.19 20.9102C143.666 21.4542 144.436 21.7262 145.502 21.7262C145.887 21.7262 146.227 21.6922 146.522 21.6242C146.816 21.5562 147.077 21.5109 147.304 21.4882C147.576 21.4655 147.802 21.5562 147.984 21.7602C148.165 21.9415 148.256 22.3269 148.256 22.9162C148.256 23.3695 148.176 23.7775 148.018 24.1402C147.882 24.4802 147.621 24.7182 147.236 24.8542C146.941 24.9449 146.556 25.0242 146.08 25.0922C145.604 25.1829 145.184 25.2282 144.822 25.2282Z" fill="white"/>
</svg>
