<svg width="33" height="33" viewBox="0 0 33 33" fill="none" xmlns="http://www.w3.org/2000/svg">
<path d="M31.374 0.218262H1.90527C1.19658 0.218262 0.624023 0.79082 0.624023 1.49951V30.9683C0.624023 31.677 1.19658 32.2495 1.90527 32.2495H31.374C32.0827 32.2495 32.6553 31.677 32.6553 30.9683V1.49951C32.6553 0.79082 32.0827 0.218262 31.374 0.218262ZM30.0928 29.687H22.7216V19.8454H26.8856L27.5103 15.0127H22.7216V11.9257C22.7216 10.5243 23.11 9.57139 25.1159 9.57139H27.6744V5.24717C27.23 5.18711 25.7125 5.05498 23.9428 5.05498C20.2512 5.05498 17.7247 7.30918 17.7247 11.4452V15.0087H13.5526V19.8414H17.7287V29.687H3.18652V2.78076H30.0928V29.687Z" fill="white"/>
</svg>
